<svg width="80" height="40" viewBox="0 0 80 40" fill="none" xmlns="http://www.w3.org/2000/svg">
<rect width="80" height="40" rx="8" fill="#F88000"/>
<path d="M28.5562 13.454V26H26.9182V20.312H20.5282V26H18.8902V13.454H20.5282V18.962H26.9182V13.454H28.5562ZM41.3611 26.126C40.1971 26.126 39.1351 25.856 38.1751 25.316C37.2151 24.764 36.4531 24.002 35.8891 23.03C35.3371 22.046 35.0611 20.942 35.0611 19.718C35.0611 18.494 35.3371 17.396 35.8891 16.424C36.4531 15.44 37.2151 14.678 38.1751 14.138C39.1351 13.586 40.1971 13.31 41.3611 13.31C42.5371 13.31 43.6051 13.586 44.5651 14.138C45.5251 14.678 46.2811 15.434 46.8331 16.406C47.3851 17.378 47.6611 18.482 47.6611 19.718C47.6611 20.954 47.3851 22.058 46.8331 23.03C46.2811 24.002 45.5251 24.764 44.5651 25.316C43.6051 25.856 42.5371 26.126 41.3611 26.126ZM41.3611 24.704C42.2371 24.704 43.0231 24.5 43.7191 24.092C44.4271 23.684 44.9791 23.102 45.3751 22.346C45.7831 21.59 45.9871 20.714 45.9871 19.718C45.9871 18.71 45.7831 17.834 45.3751 17.09C44.9791 16.334 44.4331 15.752 43.7371 15.344C43.0411 14.936 42.2491 14.732 41.3611 14.732C40.4731 14.732 39.6811 14.936 38.9851 15.344C38.2891 15.752 37.7371 16.334 37.3291 17.09C36.9331 17.834 36.7351 18.71 36.7351 19.718C36.7351 20.714 36.9331 21.59 37.3291 22.346C37.7371 23.102 38.2891 23.684 38.9851 24.092C39.6931 24.5 40.4851 24.704 41.3611 24.704ZM61.8655 13.454V14.786H58.4455V26H56.8075V14.786H53.3695V13.454H61.8655Z" fill="white"/>
</svg>
